<?xml version="1.0" encoding="utf-8"?>
<!-- Generator: Adobe Illustrator 17.1.0, SVG Export Plug-In . SVG Version: 6.00 Build 0)  -->
<!DOCTYPE svg PUBLIC "-//W3C//DTD SVG 1.1//EN" "http://www.w3.org/Graphics/SVG/1.1/DTD/svg11.dtd">
<svg version="1.1" id="Layer_1" xmlns="http://www.w3.org/2000/svg" xmlns:xlink="http://www.w3.org/1999/xlink" x="0px" y="0px"
	 viewBox="0 0 37 37.3" enable-background="new 0 0 37 37.3" xml:space="preserve">
<path fill="#FFFFFF" d="M18.5,0.2C8.3,0.2,0,8.4,0,18.7C0,28.8,8.2,37,18.3,37.2V23.6h-3.2V19h3.2v-1.4v-1.4v-0.2c0-1.4,0-3.5,1-4.8
	c1-1.4,2.5-2.3,4.9-2.3c4,0,5.7,0.6,5.7,0.6l-0.8,4.7c0,0-1.3-0.4-2.6-0.4c-1.2,0-2.3,0.4-2.3,1.7v0.5v1.6V19h5.1L29,23.6h-4.7v12.7
	C31.6,33.8,37,26.9,37,18.7C37,8.4,28.7,0.2,18.5,0.2z"/>
</svg>
