<?xml version="1.0" encoding="utf-8"?>
<!-- Generator: Adobe Illustrator 17.1.0, SVG Export Plug-In . SVG Version: 6.00 Build 0)  -->
<!DOCTYPE svg PUBLIC "-//W3C//DTD SVG 1.1//EN" "http://www.w3.org/Graphics/SVG/1.1/DTD/svg11.dtd">
<svg version="1.1" id="Layer_1" xmlns="http://www.w3.org/2000/svg" xmlns:xlink="http://www.w3.org/1999/xlink" x="0px" y="0px"
	 viewBox="0 0 37 37.3" enable-background="new 0 0 37 37.3" xml:space="preserve">
<g>
	<path fill="#FFFFFF" d="M15.4,16.7c2.4,0,4.7,0.3,4.7-2.3c0-2.4-2.5-2-4.7-2l0,1.6L15.4,16.7z"/>
	<path fill="#FFFFFF" d="M15.4,20.3l0,5.1c2.6,0,5.9,0.4,5.9-2.5C21.4,19.7,18,20.3,15.4,20.3z"/>
	<path fill="#FFFFFF" d="M18.5,0.2C8.3,0.2,0,8.4,0,18.7s8.3,18.5,18.5,18.5S37,28.9,37,18.7S28.7,0.2,18.5,0.2z M19.2,29.2h-8.9
		l0-20.5h9.3c3.1,0,5.7,1.5,5.7,4.5c0,2.5-0.9,3.5-2.8,4.6c0.2,0.1,1.2,0.5,1.6,0.6c0.6,0.3,0.9,0.6,1.3,1c1.1,1.1,1.3,2.1,1.3,3.8
		C26.7,27.2,22.9,29.2,19.2,29.2z"/>
</g>
</svg>
