<?xml version="1.0" encoding="utf-8"?>
<!-- Generator: Adobe Illustrator 17.1.0, SVG Export Plug-In . SVG Version: 6.00 Build 0)  -->
<!DOCTYPE svg PUBLIC "-//W3C//DTD SVG 1.1//EN" "http://www.w3.org/Graphics/SVG/1.1/DTD/svg11.dtd">
<svg version="1.1" id="Layer_1" xmlns="http://www.w3.org/2000/svg" xmlns:xlink="http://www.w3.org/1999/xlink" x="0px" y="0px"
	 viewBox="0 0 17 12" enable-background="new 0 0 17 12" xml:space="preserve">
<g>
	<g>
		<path fill="#FF0302" d="M0.5,10.8C0.5,10.8,0.6,10.8,0.5,10.8c0.4,0,0.7,0,1,0c0,0,0.1,0,0.1,0C2,9.7,2.4,8.6,2.9,7.5
			C3.6,5.7,4.4,3.8,5.1,2c0.2-0.6,0.5-1.1,0.7-1.7c0,0,0,0,0,0c0.9,2,1.9,4,2.8,5.9c1-2,1.9-4,2.9-5.9c0,0,0,0,0,0.1
			c0.3,0.9,0.7,1.7,1,2.6c0.6,1.4,1.1,2.8,1.7,4.3c0.5,1.2,1,2.4,1.4,3.6c0,0,0,0,0.1,0c0.3,0,0.6,0,0.9,0c0,0,0,0,0.1,0
			c0,0.3,0,0.6,0,0.9c-1.9,0-3.9,0-5.8,0c0-0.3,0-0.6,0-0.9c0.4,0,0.8,0,1.2,0c-0.4-1.1-0.9-2.2-1.3-3.3c0,0,0,0,0,0
			c-0.7,1.4-1.4,2.8-2.1,4.2c-0.7-1.4-1.4-2.8-2.1-4.2c0,0,0,0,0,0c-0.5,1.1-0.9,2.2-1.4,3.3c0.4,0,0.8,0,1.2,0c0,0.3,0,0.6,0,0.9
			c0,0,0,0-0.1,0c-1.9,0-3.8,0-5.7,0c0,0,0,0-0.1,0C0.5,11.4,0.5,11.1,0.5,10.8z"/>
	</g>
</g>
</svg>
