<?xml version="1.0" encoding="utf-8"?>
<!-- Generator: Adobe Illustrator 17.1.0, SVG Export Plug-In . SVG Version: 6.00 Build 0)  -->
<!DOCTYPE svg PUBLIC "-//W3C//DTD SVG 1.1//EN" "http://www.w3.org/Graphics/SVG/1.1/DTD/svg11.dtd">
<svg version="1.1" xmlns="http://www.w3.org/2000/svg" xmlns:xlink="http://www.w3.org/1999/xlink" x="0px" y="0px"
	 viewBox="0 0 440 55" enable-background="new 0 0 440 55" xml:space="preserve">
<g id="Layer_4" display="none">
</g>
<g id="Layer_1">
	<g>
		<g>
			<path fill="#ffffff" d="M129.3,18.3c2.1,0,3.8-1.7,3.8-3.7s-1.7-3.7-3.8-3.7h-11.1c-2.1,0-3.8,1.7-3.8,3.7v27.9
				c0,2.1,1.7,3.7,3.8,3.7c2.1,0,3.8-1.7,3.8-3.7V32.2h7.4c2.1,0,3.8-1.7,3.8-3.7s-1.7-3.7-3.8-3.7h-7.4v-6.5H129.3z"/>
			<path fill="#ffffff" d="M171.7,33.6L171.7,33.6l-8.3-20.5c0,0,0,0,0,0c-0.1-0.1-0.1-0.3-0.2-0.4c0-0.1-0.1-0.2-0.1-0.2
				c-0.1-0.1-0.2-0.2-0.3-0.3c-0.1-0.1-0.1-0.2-0.2-0.3c-0.1-0.1-0.2-0.1-0.2-0.2c-0.1-0.1-0.2-0.2-0.3-0.3c-0.1,0-0.2-0.1-0.2-0.1
				c-0.1-0.1-0.3-0.2-0.4-0.2c0,0,0,0,0,0c-0.1,0-0.2,0-0.2-0.1c-0.1,0-0.3-0.1-0.4-0.1c-0.1,0-0.2,0-0.3,0c-0.1,0-0.3,0-0.4,0
				c-0.1,0-0.2,0-0.4,0c-0.1,0-0.2,0-0.4,0c-0.1,0-0.3,0.1-0.4,0.1c-0.1,0-0.2,0-0.3,0.1c0,0,0,0,0,0c-0.1,0.1-0.3,0.1-0.4,0.2
				c-0.1,0-0.2,0.1-0.2,0.1c-0.1,0.1-0.2,0.2-0.3,0.2c-0.1,0.1-0.2,0.1-0.3,0.2c-0.1,0.1-0.1,0.2-0.2,0.2c-0.1,0.1-0.2,0.2-0.3,0.3
				c0,0.1-0.1,0.1-0.1,0.2c-0.1,0.1-0.2,0.3-0.2,0.4c0,0,0,0,0,0l-11.1,27.9c-0.8,1.9,0.2,4.1,2.1,4.8c0.5,0.2,0.9,0.3,1.4,0.3
				c1.5,0,2.9-0.9,3.5-2.4l2-5.1h11.4l2.1,5.1c0.6,1.4,2,2.3,3.5,2.3c0.5,0,0.9-0.1,1.4-0.3c1.9-0.8,2.8-3,2.1-4.9L171.7,33.6z
				 M157.2,31.3l2.7-6.7l2.7,6.7H157.2z"/>
			<path fill="#ffffff" d="M222.9,13.7C222.9,13.7,222.9,13.7,222.9,13.7L222.9,13.7c0-0.1,0-0.1-0.1-0.2c-0.1-0.2-0.1-0.4-0.2-0.5
				c0-0.1-0.1-0.2-0.2-0.3c-0.1-0.1-0.1-0.2-0.2-0.3c-0.1-0.1-0.1-0.2-0.2-0.3c-0.1-0.1-0.2-0.2-0.3-0.3c-0.1-0.1-0.2-0.2-0.3-0.2
				c-0.1-0.1-0.2-0.2-0.3-0.2c-0.2-0.1-0.3-0.2-0.5-0.2c-0.1,0-0.1-0.1-0.2-0.1l0,0c-0.4-0.2-0.9-0.2-1.3-0.2c-0.3,0-0.6,0-0.9,0.1
				l0,0c-0.1,0-0.1,0-0.2,0.1c-0.2,0.1-0.3,0.1-0.5,0.2c-0.1,0-0.2,0.1-0.3,0.2c-0.1,0.1-0.2,0.1-0.3,0.2c-0.1,0.1-0.2,0.2-0.3,0.2
				c-0.1,0.1-0.2,0.2-0.3,0.2c-0.1,0.1-0.1,0.2-0.2,0.3c-0.1,0.1-0.2,0.2-0.2,0.3c-0.1,0.1-0.1,0.3-0.2,0.4c0,0.1-0.1,0.2-0.1,0.2
				l-7.3,18.9l-7.3-18.9c0,0,0,0,0,0c-0.1-0.1-0.1-0.3-0.2-0.4c0-0.1-0.1-0.2-0.1-0.3c-0.1-0.1-0.1-0.2-0.2-0.3
				c-0.1-0.1-0.2-0.2-0.2-0.3c-0.1-0.1-0.2-0.1-0.2-0.2c-0.1-0.1-0.2-0.2-0.3-0.3c-0.1-0.1-0.2-0.1-0.3-0.2
				c-0.1-0.1-0.2-0.1-0.4-0.2c-0.1,0-0.2-0.1-0.3-0.1c-0.2-0.1-0.3-0.1-0.5-0.1c0,0,0,0,0,0c-0.1,0-0.1,0-0.2,0c-0.2,0-0.3,0-0.5,0
				c-0.1,0-0.2,0-0.3,0c-0.2,0-0.3,0-0.5,0c-0.1,0-0.2,0.1-0.3,0.1c-0.1,0-0.2,0.1-0.3,0.1c0,0,0,0-0.1,0c-0.1,0-0.2,0.1-0.3,0.1
				c-0.1,0.1-0.3,0.1-0.4,0.2c0,0-0.1,0.1-0.1,0.1c-0.2,0.1-0.3,0.2-0.5,0.4c0,0-0.1,0.1-0.1,0.1c-0.1,0.1-0.3,0.3-0.4,0.4
				c-0.1,0.1-0.1,0.2-0.1,0.2c-0.1,0.1-0.2,0.3-0.2,0.4c0,0.1-0.1,0.2-0.1,0.3c0,0.1-0.1,0.3-0.1,0.4c0,0,0,0,0,0.1l-5.6,27.9
				c-0.4,2,0.9,4,3,4.4c0.2,0,0.5,0.1,0.7,0.1c1.8,0,3.3-1.2,3.7-3l3-15.3l6.2,15.9c0,0,0,0.1,0,0.1c0,0.1,0.1,0.1,0.1,0.2
				c0.1,0.1,0.1,0.3,0.2,0.4c0,0.1,0.1,0.1,0.1,0.2c0.1,0.1,0.2,0.3,0.3,0.4c0,0,0.1,0.1,0.1,0.1c0.2,0.2,0.3,0.3,0.5,0.4
				c0,0,0.1,0,0.1,0.1c0.2,0.1,0.3,0.2,0.5,0.2c0,0,0.1,0,0.1,0c0,0,0.1,0,0.1,0c0.1,0.1,0.3,0.1,0.4,0.1c0.1,0,0.1,0,0.2,0
				c0.2,0,0.4,0.1,0.6,0.1l0,0l0,0l0,0l0,0c0.2,0,0.4,0,0.6-0.1c0.1,0,0.1,0,0.2,0c0.1,0,0.3-0.1,0.4-0.1c0,0,0.1,0,0.1,0
				c0,0,0.1,0,0.1,0c0.2-0.1,0.3-0.1,0.5-0.2c0,0,0.1,0,0.1-0.1c0.2-0.1,0.4-0.3,0.5-0.4c0,0,0.1-0.1,0.1-0.1
				c0.1-0.1,0.2-0.2,0.3-0.4c0-0.1,0.1-0.1,0.1-0.2c0.1-0.1,0.2-0.3,0.2-0.4c0-0.1,0.1-0.1,0.1-0.2c0,0,0-0.1,0-0.1l6.5-16.7
				l3.9,16.2c0.4,1.7,1.9,2.9,3.6,2.9c0.3,0,0.6,0,0.9-0.1c2-0.5,3.3-2.5,2.8-4.5L222.9,13.7z"/>
			<path fill="#ffffff" d="M250.1,10.8c-2.1,0-3.8,1.7-3.8,3.7v27.9c0,2.1,1.7,3.7,3.8,3.7c2.1,0,3.8-1.7,3.8-3.7V14.5
				C253.9,12.5,252.2,10.8,250.1,10.8z"/>
			<path fill="#ffffff" d="M288.5,38.7H280V14.5c0-2.1-1.7-3.7-3.8-3.7c-2.1,0-3.8,1.7-3.8,3.7v27.9c0,2.1,1.7,3.7,3.8,3.7h12.2
				c2.1,0,3.8-1.7,3.8-3.7C292.2,40.4,290.5,38.7,288.5,38.7z"/>
			<path fill="#ffffff" d="M324.1,11.6c-1.6-1.3-4-1-5.3,0.7l-7.7,10l-7.1-9.9c-1.2-1.7-3.5-2.1-5.2-0.9c-1.7,1.2-2.1,3.5-0.9,5.2
				l9.3,13v12.8c0,2.1,1.7,3.7,3.8,3.7s3.8-1.7,3.8-3.7V29.8l10.1-12.9C326,15.2,325.7,12.8,324.1,11.6z"/>
		</g>
		<path fill="#ffffff" d="M46.1,14.2c-3.5,0-6.3,3-6.3,6.8s2.8,6.8,6.3,6.8c3.5,0,6.3-3,6.3-6.8S49.5,14.2,46.1,14.2z"/>
		<path fill="#ffffff" d="M72,14.2h-3.2v5.1H72c1.4,0,2.5-1.1,2.5-2.5C74.5,15.4,73.4,14.2,72,14.2z"/>
		<path fill="#ffffff" d="M340.9,14c-3-7.9-12.7-14-20.8-14H99.3H0v41c0,0,98.7,0,99.4,0c1,9,6.5,14,14.8,14h226.5h1.1H440V14
			C440,14,341.2,14,340.9,14z M27,18.5c1.4,0,2.5,1.1,2.5,2.5s-1.1,2.5-2.5,2.5h-4.9v6.8c0,1.4-1.1,2.5-2.5,2.5s-2.5-1.1-2.5-2.5
			V11.8c0-1.4,1.1-2.5,2.5-2.5H27c1.4,0,2.5,1.1,2.5,2.5c0,1.4-1.1,2.5-2.5,2.5h-4.9v4.3H27z M46.1,32.8c-6.2,0-11.3-5.3-11.3-11.8
			c0-6.5,5.1-11.8,11.3-11.8c6.2,0,11.3,5.3,11.3,11.8C57.4,27.5,52.3,32.8,46.1,32.8z M78.9,28.7c0.9,1,0.8,2.6-0.2,3.5
			c-0.5,0.4-1.1,0.6-1.6,0.6c-0.7,0-1.4-0.3-1.9-0.9L69,25c-0.1-0.1-0.2-0.2-0.2-0.3v5.7c0,1.4-1.1,2.5-2.5,2.5
			c-1.4,0-2.5-1.1-2.5-2.5V11.8c0-1.4,1.1-2.5,2.5-2.5H72c4.1,0,7.5,3.4,7.5,7.5c0,3.3-2,6-4.8,7.1L78.9,28.7z M339.6,52.8H114.3
			c-10.4,0-12.7-7.8-12.7-14.7V2.2h218.6c8.8,0,19.5,7.6,19.5,16.7V52.8z M353,44.9c-0.3,0.3-0.6,0.4-1.1,0.4c-0.4,0-0.7-0.1-1-0.4
			c-0.3-0.3-0.4-0.7-0.4-1.2c0-0.5,0.1-0.9,0.4-1.2c0.2-0.3,0.6-0.4,1-0.4c0.5,0,0.8,0.1,1.1,0.4c0.3,0.3,0.4,0.7,0.4,1.2
			C353.4,44.2,353.3,44.6,353,44.9z M360.5,41.5c1.1,1.2,2.6,1.9,4.6,1.9c1.2,0,2.6-0.2,4.2-0.7v1.8c-1.2,0.5-2.7,0.7-4.5,0.7
			c-2.6,0-4.6-0.8-6-2.3c-1.4-1.6-2.1-3.8-2.1-6.6c0-1.8,0.3-3.4,1-4.7c0.7-1.3,1.6-2.4,2.9-3.1c1.3-0.7,2.8-1.1,4.5-1.1
			c1.8,0,3.4,0.3,4.8,1l-0.9,1.7c-1.3-0.6-2.6-0.9-4-0.9c-1.9,0-3.4,0.6-4.6,1.9c-1.1,1.3-1.7,3-1.7,5.2
			C358.9,38.5,359.5,40.3,360.5,41.5z M382.9,44.9h-9.8V27.5h2v15.6h7.7V44.9z M399.1,38.8c0,2-0.6,3.5-1.8,4.7
			c-1.2,1.1-2.9,1.7-5,1.7c-2.1,0-3.7-0.6-4.9-1.7c-1.2-1.1-1.7-2.7-1.7-4.7V27.5h2v11.4c0,1.5,0.4,2.6,1.2,3.3
			c0.8,0.8,2,1.2,3.5,1.2c1.5,0,2.6-0.4,3.4-1.2c0.8-0.8,1.2-1.9,1.2-3.4V27.5h2V38.8z M414.3,43.6c-1.1,0.9-2.5,1.3-4.4,1.3h-6.1
			V27.5h4.9c2.3,0,4,0.3,5,1c1,0.7,1.6,1.8,1.6,3.3c0,1-0.3,1.9-0.9,2.6c-0.6,0.7-1.4,1.1-2.5,1.3v0.1c2.7,0.5,4,1.8,4,4.2
			C415.8,41.5,415.3,42.8,414.3,43.6z"/>
		<path fill="#ffffff" d="M412.6,37.5c-0.7-0.5-1.8-0.8-3.3-0.8h-3.5v6.5h3.7c1.4,0,2.5-0.3,3.2-0.8c0.7-0.5,1.1-1.4,1.1-2.6
			C413.7,38.8,413.3,38,412.6,37.5z"/>
		<path fill="#ffffff" d="M412.2,34.3c0.6-0.4,0.9-1.2,0.9-2.3c0-1-0.4-1.7-1.1-2.1c-0.7-0.4-1.8-0.6-3.4-0.6h-3V35h3.4
			C410.5,35,411.6,34.8,412.2,34.3z"/>
	</g>
</g>
<g id="TEXT">
</g>
<g id="Layer_3">
</g>
</svg>
