<?xml version="1.0" encoding="utf-8"?>
<!-- Generator: Adobe Illustrator 17.1.0, SVG Export Plug-In . SVG Version: 6.00 Build 0)  -->
<!DOCTYPE svg PUBLIC "-//W3C//DTD SVG 1.1//EN" "http://www.w3.org/Graphics/SVG/1.1/DTD/svg11.dtd">
<svg version="1.1" id="Layer_1" xmlns="http://www.w3.org/2000/svg" xmlns:xlink="http://www.w3.org/1999/xlink" x="0px" y="0px"
	 viewBox="0 0 26 38" enable-background="new 0 0 26 38" xml:space="preserve">
<path fill="#B69B71" d="M13,0.9c-6.6,0-12,5.4-12,12c0,2.7,1.7,7,5.2,13.3c2.5,4.4,4.9,8.1,5,8.3l1.8,2.7l1.8-2.7
	c0.1-0.2,2.5-3.8,5-8.3c3.5-6.3,5.2-10.6,5.2-13.3C25,6.3,19.6,0.9,13,0.9L13,0.9z M13,19c-3.4,0-6.2-2.8-6.2-6.2
	c0-3.4,2.8-6.2,6.2-6.2c3.4,0,6.2,2.8,6.2,6.2C19.2,16.2,16.4,19,13,19L13,19z M13,19"/>
</svg>
