<?xml version="1.0" encoding="utf-8"?>
<!-- Generator: Adobe Illustrator 17.1.0, SVG Export Plug-In . SVG Version: 6.00 Build 0)  -->
<!DOCTYPE svg PUBLIC "-//W3C//DTD SVG 1.1//EN" "http://www.w3.org/Graphics/SVG/1.1/DTD/svg11.dtd">
<svg version="1.1" xmlns="http://www.w3.org/2000/svg" xmlns:xlink="http://www.w3.org/1999/xlink" x="0px" y="0px"
	 viewBox="0 0 56 30" enable-background="new 0 0 56 30" xml:space="preserve">
<g id="Layer_4" display="none">
</g>
<g id="Layer_1">
	<g>
		<path fill="#FFFFFF" d="M54,4H2C0.9,4,0,3.1,0,2s0.9-2,2-2h52c1.1,0,2,0.9,2,2S55.1,4,54,4z"/>
	</g>
	<g>
		<path fill="#FFFFFF" d="M54,17H2c-1.1,0-2-0.9-2-2s0.9-2,2-2h52c1.1,0,2,0.9,2,2S55.1,17,54,17z"/>
	</g>
	<g>
		<path fill="#FFFFFF" d="M54,30H2c-1.1,0-2-0.9-2-2s0.9-2,2-2h52c1.1,0,2,0.9,2,2S55.1,30,54,30z"/>
	</g>
</g>
<g id="TEXT">
</g>
<g id="Layer_3">
</g>
</svg>
