<?xml version="1.0" encoding="utf-8"?>
<!-- Generator: Adobe Illustrator 17.1.0, SVG Export Plug-In . SVG Version: 6.00 Build 0)  -->
<!DOCTYPE svg PUBLIC "-//W3C//DTD SVG 1.1//EN" "http://www.w3.org/Graphics/SVG/1.1/DTD/svg11.dtd">
<svg version="1.1" xmlns="http://www.w3.org/2000/svg" xmlns:xlink="http://www.w3.org/1999/xlink" x="0px" y="0px"
	 viewBox="0 0 41 38" enable-background="new 0 0 41 38" xml:space="preserve">
<g id="Layer_4" display="none">
</g>
<g id="Layer_1">
</g>
<g id="TEXT">
	<path fill="#CCBEAC" d="M32,4V0h-1v4h-9V0h-1v4H11V0h-1v4H0v12v7v1v6v1v7h8h1h7h1h7h1h7h1h8v-7v-1v-6v-1v-7V4H32z M1,17h7v6H1V17z
		 M32,23h-7v-6h7V23z M32,30h-7v-6h7V30z M9,24h7v6H9V24z M17,24h7v6h-7V24z M24,23h-7v-6h7V23z M16,23H9v-6h7V23z M1,24h7v6H1V24z
		 M1,37v-6h7v6H1z M9,37v-6h7v6H9z M17,37v-6h7v6H17z M25,37v-6h7v6H25z M40,37h-7v-6h7V37z M40,30h-7v-6h7V30z M33,23v-6h7v6H33z
		 M33,16h-1h-7h-1h-7h-1H9H8H1V5h9v4h1V5h10v4h1V5h9v4h1V5h8v11H33z"/>
</g>
<g id="Layer_3">
</g>
</svg>
