<?xml version="1.0" encoding="utf-8"?>
<!-- Generator: Adobe Illustrator 17.1.0, SVG Export Plug-In . SVG Version: 6.00 Build 0)  -->
<!DOCTYPE svg PUBLIC "-//W3C//DTD SVG 1.1//EN" "http://www.w3.org/Graphics/SVG/1.1/DTD/svg11.dtd">
<svg version="1.1" id="Layer_1" xmlns="http://www.w3.org/2000/svg" xmlns:xlink="http://www.w3.org/1999/xlink" x="0px" y="0px"
	 viewBox="0 0 16 16" enable-background="new 0 0 16 16" xml:space="preserve">
<g id="Close_Search_6_">
	<g>
		<g>
			<g>
				<path fill="#FFFFFF" d="M14.8,12.6l-3-3c1.5-2.6,0.8-6.2-2-8c-1.9-1.2-4.4-1.2-6.3,0c-3.7,2.4-3.7,7.7,0,10.1
					c1.8,1.2,4.2,1.2,6,0.1l3,3c0.6,0.6,1.6,0.6,2.3,0C15.5,14.2,15.5,13.2,14.8,12.6z M4.1,10.1c-2.4-1.7-2.4-5.2,0-7
					c1.5-1.1,3.6-1.1,5.1,0c1.7,1.3,2.2,3.4,1.4,5.2c-0.1,0.2-0.2,0.3-0.2,0.5c0,0,0,0,0,0C10.2,9,10.1,9.1,10,9.3c0,0,0,0,0,0.1
					C9.9,9.5,9.8,9.6,9.7,9.7c0,0-0.1,0.1-0.1,0.1C9.5,9.9,9.3,10,9.2,10.1c-0.1,0.1-0.3,0.2-0.5,0.3c-0.1,0.1-0.3,0.1-0.4,0.2l0,0
					C7,11.2,5.3,11,4.1,10.1z"/>
			</g>
		</g>
	</g>
</g>
</svg>
