<?xml version="1.0" encoding="utf-8"?>
<!-- Generator: Adobe Illustrator 17.1.0, SVG Export Plug-In . SVG Version: 6.00 Build 0)  -->
<!DOCTYPE svg PUBLIC "-//W3C//DTD SVG 1.1//EN" "http://www.w3.org/Graphics/SVG/1.1/DTD/svg11.dtd">
<svg version="1.1" id="Layer_1" xmlns="http://www.w3.org/2000/svg" xmlns:xlink="http://www.w3.org/1999/xlink" x="0px" y="0px"
	 viewBox="0 0 22 14" enable-background="new 0 0 22 14" xml:space="preserve">
<path fill-rule="evenodd" clip-rule="evenodd" fill="#FFFFFF" d="M18.2,8.5c0.7,0.6,1.4,1.3,2,2c0.3,0.3,0.5,0.6,0.7,1
	c0.3,0.5,0,1.1-0.4,1.1l-2.9,0c-0.8,0.1-1.3-0.2-1.9-0.8c-0.4-0.4-0.8-0.8-1.2-1.3c-0.2-0.2-0.3-0.3-0.5-0.5c-0.4-0.3-0.7-0.2-1,0.2
	c-0.2,0.4-0.3,0.9-0.3,1.4c0,0.7-0.2,0.9-0.9,0.9c-1.5,0.1-2.9-0.2-4.2-0.9c-1.1-0.7-2-1.6-2.8-2.6c-1.5-2-2.7-4.3-3.7-6.6
	C0.9,2,1.1,1.8,1.6,1.7c0.9,0,1.9,0,2.8,0c0.4,0,0.6,0.2,0.8,0.6c0.5,1.3,1.1,2.5,1.9,3.6c0.2,0.3,0.4,0.6,0.7,0.8
	c0.3,0.2,0.6,0.2,0.8-0.2C8.8,6.3,8.8,6,8.8,5.7c0.1-0.9,0.1-1.8,0-2.6c-0.1-0.5-0.4-0.9-0.9-1C7.6,2.1,7.6,2,7.8,1.8
	C8,1.5,8.2,1.4,8.7,1.4h3.3c0.5,0.1,0.6,0.3,0.7,0.9l0,3.7c0,0.2,0.1,0.8,0.5,0.9c0.3,0.1,0.5-0.1,0.7-0.3c0.8-0.8,1.3-1.8,1.9-2.8
	c0.2-0.4,0.4-0.9,0.6-1.4c0.1-0.3,0.4-0.5,0.7-0.5l3.2,0c0.1,0,0.2,0,0.3,0c0.5,0.1,0.7,0.3,0.5,0.8c-0.3,0.8-0.8,1.5-1.3,2.2
	c-0.5,0.7-1.1,1.4-1.6,2.2C17.6,7.6,17.6,8,18.2,8.5L18.2,8.5z"/>
</svg>
